<svg width="4438" height="2512" xmlns="http://www.w3.org/2000/svg" xmlns:xlink="http://www.w3.org/1999/xlink" xml:space="preserve" overflow="hidden"><defs><filter id="fx0" x="-10%" y="-10%" width="120%" height="120%" filterUnits="userSpaceOnUse" primitiveUnits="userSpaceOnUse"><feComponentTransfer color-interpolation-filters="sRGB"><feFuncR type="discrete" tableValues="0.65098 0.65098"/><feFuncG type="discrete" tableValues="0.65098 0.65098"/><feFuncB type="discrete" tableValues="0.65098 0.65098"/><feFuncA type="linear" slope="1" intercept="0"/></feComponentTransfer><feGaussianBlur stdDeviation="6.11111 6.11111"/></filter><filter id="fx1" x="-10%" y="-10%" width="120%" height="120%" filterUnits="userSpaceOnUse" primitiveUnits="userSpaceOnUse"><feComponentTransfer color-interpolation-filters="sRGB"><feFuncR type="discrete" tableValues="0.65098 0.65098"/><feFuncG type="discrete" tableValues="0.65098 0.65098"/><feFuncB type="discrete" tableValues="0.65098 0.65098"/><feFuncA type="linear" slope="0.4" intercept="0"/></feComponentTransfer><feGaussianBlur stdDeviation="6.11111 6.11111"/></filter><filter id="fx2" x="-10%" y="-10%" width="120%" height="120%" filterUnits="userSpaceOnUse" primitiveUnits="userSpaceOnUse"><feComponentTransfer color-interpolation-filters="sRGB"><feFuncR type="discrete" tableValues="0.65098 0.65098"/><feFuncG type="discrete" tableValues="0.65098 0.65098"/><feFuncB type="discrete" tableValues="0.65098 0.65098"/><feFuncA type="linear" slope="0.4" intercept="0"/></feComponentTransfer><feGaussianBlur stdDeviation="6.11111 6.11111"/></filter><clipPath id="clip3"><rect x="-19" y="0" width="4438" height="2512"/></clipPath></defs><g clip-path="url(#clip3)" transform="translate(19 0)"><g filter="url(#fx0)" transform="translate(-20 -2)"><g><rect x="20" y="20.3333" width="4400" height="2475"/></g></g><rect x="0" y="0" width="4400" height="2475"/><g filter="url(#fx1)" transform="translate(68 34)"><g><path d="M19.7227 64.8925C19.7227 39.9459 39.9456 19.7227 64.8918 19.7227L4218.55 19.7227C4243.5 19.7227 4263.72 39.9459 4263.72 64.8925L4263.72 245.553C4263.72 270.499 4243.5 290.723 4218.55 290.723L64.8918 290.723C39.9456 290.723 19.7227 270.499 19.7227 245.553Z" fill="#0D0D0D" fill-rule="evenodd"/></g></g><path d="M78 89.1697C78 64.2232 98.2229 44 123.169 44L4276.83 44C4301.78 44 4322 64.2232 4322 89.1697L4322 269.83C4322 294.777 4301.78 315 4276.83 315L123.169 315C98.2229 315 78 294.777 78 269.83Z" fill="#0D0D0D" fill-rule="evenodd"/><g filter="url(#fx2)" transform="translate(68 401)"><g><path d="M19.7227 102.176C19.7227 56.6382 56.638 19.7228 102.175 19.7228L4181.27 19.7228C4226.81 19.7228 4263.72 56.6382 4263.72 102.176L4263.72 1903.27C4263.72 1948.81 4226.81 1985.72 4181.27 1985.72L102.175 1985.72C56.638 1985.72 19.7227 1948.81 19.7227 1903.27Z" fill="#0D0D0D" fill-rule="evenodd"/></g></g><path d="M78 493.453C78 447.915 114.915 411 160.453 411L4239.55 411C4285.08 411 4322 447.915 4322 493.453L4322 2294.55C4322 2340.08 4285.08 2377 4239.55 2377L160.453 2377C114.915 2377 78 2340.08 78 2294.55Z" fill="#0D0D0D" fill-rule="evenodd"/></g></svg>