<svg width="4438" height="2512" xmlns="http://www.w3.org/2000/svg" xmlns:xlink="http://www.w3.org/1999/xlink" xml:space="preserve" overflow="hidden"><defs><filter id="fx0" x="-10%" y="-10%" width="120%" height="120%" filterUnits="userSpaceOnUse" primitiveUnits="userSpaceOnUse"><feComponentTransfer color-interpolation-filters="sRGB"><feFuncR type="discrete" tableValues="0.65098 0.65098"/><feFuncG type="discrete" tableValues="0.65098 0.65098"/><feFuncB type="discrete" tableValues="0.65098 0.65098"/><feFuncA type="linear" slope="1" intercept="0"/></feComponentTransfer><feGaussianBlur stdDeviation="6.11111 6.11111"/></filter><filter id="fx1" x="-10%" y="-10%" width="120%" height="120%" filterUnits="userSpaceOnUse" primitiveUnits="userSpaceOnUse"><feComponentTransfer color-interpolation-filters="sRGB"><feFuncR type="discrete" tableValues="0.65098 0.65098"/><feFuncG type="discrete" tableValues="0.65098 0.65098"/><feFuncB type="discrete" tableValues="0.65098 0.65098"/><feFuncA type="linear" slope="0.4" intercept="0"/></feComponentTransfer><feGaussianBlur stdDeviation="6.11111 6.11111"/></filter><filter id="fx2" x="-10%" y="-10%" width="120%" height="120%" filterUnits="userSpaceOnUse" primitiveUnits="userSpaceOnUse"><feComponentTransfer color-interpolation-filters="sRGB"><feFuncR type="discrete" tableValues="0.65098 0.65098"/><feFuncG type="discrete" tableValues="0.65098 0.65098"/><feFuncB type="discrete" tableValues="0.65098 0.65098"/><feFuncA type="linear" slope="0.4" intercept="0"/></feComponentTransfer><feGaussianBlur stdDeviation="6.11111 6.11111"/></filter><filter id="fx3" x="-10%" y="-10%" width="120%" height="120%" filterUnits="userSpaceOnUse" primitiveUnits="userSpaceOnUse"><feComponentTransfer color-interpolation-filters="sRGB"><feFuncR type="discrete" tableValues="0.65098 0.65098"/><feFuncG type="discrete" tableValues="0.65098 0.65098"/><feFuncB type="discrete" tableValues="0.65098 0.65098"/><feFuncA type="linear" slope="0.4" intercept="0"/></feComponentTransfer><feGaussianBlur stdDeviation="6.11111 6.11111"/></filter><filter id="fx4" x="-10%" y="-10%" width="120%" height="120%" filterUnits="userSpaceOnUse" primitiveUnits="userSpaceOnUse"><feComponentTransfer color-interpolation-filters="sRGB"><feFuncR type="discrete" tableValues="0.65098 0.65098"/><feFuncG type="discrete" tableValues="0.65098 0.65098"/><feFuncB type="discrete" tableValues="0.65098 0.65098"/><feFuncA type="linear" slope="0.4" intercept="0"/></feComponentTransfer><feGaussianBlur stdDeviation="6.11111 6.11111"/></filter><filter id="fx5" x="-10%" y="-10%" width="120%" height="120%" filterUnits="userSpaceOnUse" primitiveUnits="userSpaceOnUse"><feComponentTransfer color-interpolation-filters="sRGB"><feFuncR type="discrete" tableValues="0.65098 0.65098"/><feFuncG type="discrete" tableValues="0.65098 0.65098"/><feFuncB type="discrete" tableValues="0.65098 0.65098"/><feFuncA type="linear" slope="0.4" intercept="0"/></feComponentTransfer><feGaussianBlur stdDeviation="6.11111 6.11111"/></filter><filter id="fx6" x="-10%" y="-10%" width="120%" height="120%" filterUnits="userSpaceOnUse" primitiveUnits="userSpaceOnUse"><feComponentTransfer color-interpolation-filters="sRGB"><feFuncR type="discrete" tableValues="0.65098 0.65098"/><feFuncG type="discrete" tableValues="0.65098 0.65098"/><feFuncB type="discrete" tableValues="0.65098 0.65098"/><feFuncA type="linear" slope="0.4" intercept="0"/></feComponentTransfer><feGaussianBlur stdDeviation="6.11111 6.11111"/></filter><filter id="fx7" x="-10%" y="-10%" width="120%" height="120%" filterUnits="userSpaceOnUse" primitiveUnits="userSpaceOnUse"><feComponentTransfer color-interpolation-filters="sRGB"><feFuncR type="discrete" tableValues="0.65098 0.65098"/><feFuncG type="discrete" tableValues="0.65098 0.65098"/><feFuncB type="discrete" tableValues="0.65098 0.65098"/><feFuncA type="linear" slope="0.4" intercept="0"/></feComponentTransfer><feGaussianBlur stdDeviation="6.11111 6.11111"/></filter><filter id="fx8" x="-10%" y="-10%" width="120%" height="120%" filterUnits="userSpaceOnUse" primitiveUnits="userSpaceOnUse"><feComponentTransfer color-interpolation-filters="sRGB"><feFuncR type="discrete" tableValues="0.65098 0.65098"/><feFuncG type="discrete" tableValues="0.65098 0.65098"/><feFuncB type="discrete" tableValues="0.65098 0.65098"/><feFuncA type="linear" slope="0.4" intercept="0"/></feComponentTransfer><feGaussianBlur stdDeviation="6.11111 6.11111"/></filter><filter id="fx9" x="-10%" y="-10%" width="120%" height="120%" filterUnits="userSpaceOnUse" primitiveUnits="userSpaceOnUse"><feComponentTransfer color-interpolation-filters="sRGB"><feFuncR type="discrete" tableValues="0.65098 0.65098"/><feFuncG type="discrete" tableValues="0.65098 0.65098"/><feFuncB type="discrete" tableValues="0.65098 0.65098"/><feFuncA type="linear" slope="0.4" intercept="0"/></feComponentTransfer><feGaussianBlur stdDeviation="6.11111 6.11111"/></filter><clipPath id="clip10"><rect x="-19" y="0" width="4438" height="2512"/></clipPath></defs><g clip-path="url(#clip10)" transform="translate(19 0)"><g filter="url(#fx0)" transform="translate(-20 -2)"><g><rect x="20" y="20.3333" width="4400" height="2475"/></g></g><rect x="0" y="0" width="4400" height="2475"/><g filter="url(#fx1)" transform="translate(66 49)"><g><path d="M19.7227 64.8926C19.7227 39.946 39.9456 19.7228 64.8918 19.7228L4218.55 19.7228C4243.5 19.7228 4263.72 39.946 4263.72 64.8926L4263.72 245.553C4263.72 270.5 4243.5 290.723 4218.55 290.723L64.8918 290.723C39.9456 290.723 19.7227 270.5 19.7227 245.553Z" fill="#0D0D0D" fill-rule="evenodd"/></g></g><path d="M76 104.17C76 79.2233 96.2229 59.0001 121.169 59.0001L4274.83 59.0001C4299.78 59.0001 4320 79.2233 4320 104.17L4320 284.83C4320 309.777 4299.78 330 4274.83 330L121.169 330C96.2229 330 76 309.777 76 284.83Z" fill="#0D0D0D" fill-rule="evenodd"/><g filter="url(#fx2)" transform="translate(66 395)"><g><path d="M19.7227 61.4859C19.7227 38.4207 38.4207 19.7227 61.4859 19.7227L637.959 19.7227C661.025 19.7227 679.723 38.4207 679.723 61.4859L679.723 462.959C679.723 486.025 661.025 504.723 637.959 504.723L61.4859 504.723C38.4207 504.723 19.7227 486.025 19.7227 462.959Z" fill="#0D0D0D" fill-rule="evenodd"/></g></g><path d="M76 446.763C76 423.698 94.698 405 117.763 405L694.237 405C717.302 405 736 423.698 736 446.763L736 848.237C736 871.302 717.302 890 694.237 890L117.763 890C94.698 890 76 871.302 76 848.237Z" fill="#0D0D0D" fill-rule="evenodd"/><g filter="url(#fx3)" transform="translate(786 390)"><g><path d="M19.7228 61.4861C19.7228 38.4209 38.4209 19.7228 61.486 19.7228L637.96 19.7228C661.025 19.7228 679.723 38.4209 679.723 61.4861L679.723 462.96C679.723 486.025 661.025 504.723 637.96 504.723L61.486 504.723C38.4209 504.723 19.7228 486.025 19.7228 462.96Z" fill="#0D0D0D" fill-rule="evenodd"/></g></g><path d="M796 441.763C796 418.698 814.698 400 837.763 400L1414.24 400C1437.3 400 1456 418.698 1456 441.763L1456 843.237C1456 866.302 1437.3 885 1414.24 885L837.763 885C814.698 885 796 866.302 796 843.237Z" fill="#0D0D0D" fill-rule="evenodd"/><g filter="url(#fx4)" transform="translate(1506 395)"><g><path d="M19.7227 61.4859C19.7227 38.4207 38.4207 19.7227 61.4858 19.7227L637.959 19.7227C661.025 19.7227 679.723 38.4207 679.723 61.4859L679.723 462.959C679.723 486.025 661.025 504.723 637.959 504.723L61.4858 504.723C38.4207 504.723 19.7227 486.025 19.7227 462.959Z" fill="#0D0D0D" fill-rule="evenodd"/></g></g><path d="M1516 446.763C1516 423.698 1534.7 405 1557.76 405L2134.24 405C2157.3 405 2176 423.698 2176 446.763L2176 848.237C2176 871.302 2157.3 890 2134.24 890L1557.76 890C1534.7 890 1516 871.302 1516 848.237Z" fill="#0D0D0D" fill-rule="evenodd"/><g filter="url(#fx5)" transform="translate(2226 385)"><g><path d="M19.7229 61.4859C19.7229 38.4207 38.4209 19.7227 61.4861 19.7227L637.96 19.7227C661.025 19.7227 679.723 38.4207 679.723 61.4859L679.723 462.96C679.723 486.025 661.025 504.723 637.96 504.723L61.4861 504.723C38.4209 504.723 19.7229 486.025 19.7229 462.96Z" fill="#0D0D0D" fill-rule="evenodd"/></g></g><path d="M2236 436.763C2236 413.698 2254.7 395 2277.76 395L2854.24 395C2877.3 395 2896 413.698 2896 436.763L2896 838.237C2896 861.302 2877.3 880 2854.24 880L2277.76 880C2254.7 880 2236 861.302 2236 838.237Z" fill="#0D0D0D" fill-rule="evenodd"/><g filter="url(#fx6)" transform="translate(58 951)"><g><path d="M19.7228 79.6552C19.7228 46.5555 46.5553 19.7228 79.6549 19.7228L2776.79 19.7228C2809.89 19.7228 2836.72 46.5555 2836.72 79.6552L2836.72 655.79C2836.72 688.89 2809.89 715.723 2776.79 715.723L79.6549 715.723C46.5553 715.723 19.7228 688.89 19.7228 655.79Z" fill="#0D0D0D" fill-rule="evenodd"/></g></g><path d="M68.0001 1020.93C68.0001 987.833 94.8326 961 127.932 961L2825.07 961C2858.17 961 2885 987.833 2885 1020.93L2885 1597.07C2885 1630.17 2858.17 1657 2825.07 1657L127.932 1657C94.8326 1657 68.0001 1630.17 68.0001 1597.07Z" fill="#0D0D0D" fill-rule="evenodd"/><g filter="url(#fx7)" transform="translate(58 1710)"><g><path d="M19.7228 79.654C19.7228 46.555 46.5548 19.7229 79.6539 19.7229L2787.79 19.7229C2820.89 19.7229 2847.72 46.555 2847.72 79.654L2847.72 655.791C2847.72 688.891 2820.89 715.723 2787.79 715.723L79.6539 715.723C46.5548 715.723 19.7228 688.891 19.7228 655.791Z" fill="#0D0D0D" fill-rule="evenodd"/></g></g><path d="M68.0001 1779.93C68.0001 1746.83 94.8321 1720 127.931 1720L2836.07 1720C2869.17 1720 2896 1746.83 2896 1779.93L2896 2356.07C2896 2389.17 2869.17 2416 2836.07 2416L127.931 2416C94.8321 2416 68.0001 2389.17 68.0001 2356.07Z" fill="#0D0D0D" fill-rule="evenodd"/><g filter="url(#fx8)" transform="translate(2966 1710)"><g><path d="M19.7227 65.4989C19.7227 40.2175 40.2173 19.7229 65.4986 19.7229L1317.95 19.7229C1343.23 19.7229 1363.72 40.2175 1363.72 65.4989L1363.72 669.947C1363.72 695.228 1343.23 715.723 1317.95 715.723L65.4986 715.723C40.2173 715.723 19.7227 695.228 19.7227 669.947Z" fill="#0D0D0D" fill-rule="evenodd"/></g></g><path d="M2976 1765.78C2976 1740.49 2996.49 1720 3021.78 1720L4274.22 1720C4299.51 1720 4320 1740.49 4320 1765.78L4320 2370.22C4320 2395.51 4299.51 2416 4274.22 2416L3021.78 2416C2996.49 2416 2976 2395.51 2976 2370.22Z" fill="#0D0D0D" fill-rule="evenodd"/><g filter="url(#fx9)" transform="translate(2954 385)"><g><path d="M19.7229 74.3957C19.7229 44.2006 44.2008 19.7227 74.3959 19.7227L1321.05 19.7227C1351.24 19.7227 1375.72 44.2006 1375.72 74.3957L1375.72 1227.14C1375.72 1257.33 1351.24 1281.81 1321.05 1281.81L74.3959 1281.81C44.2008 1281.81 19.7229 1257.33 19.7229 1227.14Z" fill="#0D0D0D" fill-rule="evenodd"/></g></g><path d="M2964 449.673C2964 419.478 2988.48 395 3018.67 395L4265.33 395C4295.52 395 4320 419.478 4320 449.673L4320 1602.41C4320 1632.61 4295.52 1657.09 4265.33 1657.09L3018.67 1657.09C2988.48 1657.09 2964 1632.61 2964 1602.41Z" fill="#0D0D0D" fill-rule="evenodd"/></g></svg>